<svg width="40" height="40" viewBox="0 0 40 40" fill="none" xmlns="http://www.w3.org/2000/svg">
<path d="M36.0895 31.1018C36.8796 30.0153 37.3078 28.7078 37.3135 27.3645C37.322 27.1878 37.26 27.0151 37.1411 26.8842C37.0222 26.7533 36.8561 26.675 36.6795 26.6665C36.3131 26.6528 36.003 26.9345 35.9815 27.3005C35.9865 28.3651 35.6585 29.4047 35.0435 30.2738C33.7428 31.9164 31.2749 31.9998 30.7929 31.9998C30.4247 31.9998 30.1262 32.2982 30.1262 32.6664C30.1262 33.0346 30.4247 33.3331 30.7929 33.3331C31.3822 33.3331 34.4068 33.2257 36.0895 31.1018Z" fill="#FAB32F"/>
<path d="M22.6663 22.6659C22.6663 22.2977 22.3679 21.9993 21.9997 21.9993C21.6315 21.9993 21.333 22.2977 21.333 22.6659C21.333 24.1387 22.5269 25.3325 23.9996 25.3325V25.9992C23.9996 26.3674 24.2981 26.6659 24.6663 26.6659C25.0345 26.6659 25.333 26.3674 25.333 25.9992V25.3325C26.8057 25.3325 27.9996 24.1387 27.9996 22.6659C27.9996 21.1932 26.8057 19.9993 25.333 19.9993V17.3326C26.0693 17.3326 26.6663 17.9296 26.6663 18.666C26.6663 19.0342 26.9647 19.3326 27.3329 19.3326C27.7011 19.3326 27.9996 19.0342 27.9996 18.666C27.9996 17.1932 26.8057 15.9993 25.333 15.9993V15.3327C25.333 14.9645 25.0345 14.666 24.6663 14.666C24.2981 14.666 23.9996 14.9645 23.9996 15.3327V15.9993C22.5269 15.9993 21.333 17.1932 21.333 18.666C21.333 20.1387 22.5269 21.3326 23.9996 21.3326V23.9992C23.2633 23.9992 22.6663 23.4023 22.6663 22.6659ZM22.6663 18.666C22.6663 17.9296 23.2633 17.3326 23.9996 17.3326V19.9993C23.2633 19.9993 22.6663 19.4023 22.6663 18.666ZM25.333 21.3326C26.0693 21.3326 26.6663 21.9295 26.6663 22.6659C26.6663 23.4023 26.0693 23.9992 25.333 23.9992V21.3326Z" fill="#FAB32F"/>
<path d="M39.4422 22.5142C37.7995 15.5336 34.1476 11.489 31.5103 9.37638C34.8176 9.62571 35.8822 11.0017 35.9136 11.043C36.1224 11.3412 36.5318 11.4167 36.8333 11.2126C37.1347 11.0085 37.2168 10.6004 37.0175 10.2957C36.9695 10.2237 36.0435 8.90105 33.3509 8.29573C34.0394 7.72973 34.4467 6.8915 34.4662 6.00042C34.3771 4.52307 33.3486 3.2703 31.9169 2.89513C31.9756 2.41357 32.0055 1.92893 32.0063 1.44381C32.0056 0.996885 31.781 0.580042 31.4081 0.333618C31.0353 0.0871934 30.5637 0.0439683 30.1523 0.218494C29.8157 0.370876 29.5031 0.571419 29.2243 0.81382C28.8971 1.15003 28.4468 1.33789 27.9776 1.33381C27.5093 1.33711 27.0598 1.14933 26.733 0.81382C25.5581 -0.271273 23.7466 -0.271273 22.5717 0.81382C22.2445 1.15076 21.7934 1.33872 21.3237 1.33381C20.8554 1.33771 20.406 1.14982 20.0798 0.81382C19.8017 0.571939 19.49 0.371638 19.1544 0.219161C18.7433 0.0458047 18.2726 0.0896202 17.9005 0.335898C17.5284 0.582176 17.3042 0.998264 17.3031 1.44448C17.3031 3.10312 17.6311 6.06175 19.7078 8.0484C18.6164 8.71202 17.5971 9.48753 16.6665 10.3624V5.33376C16.6665 3.81378 14.5165 2.66713 11.6665 2.66713C8.81656 2.66713 6.66658 3.81378 6.66658 5.33376V12.0503C4.32861 12.2837 2.66663 13.3337 2.66663 14.667V31.6234C1.05599 32.0561 0 32.9334 0 34.0001V37.3334C0 38.8533 2.14997 40 4.99994 40C7.54857 40 9.53321 39.082 9.92454 37.8C11.0753 38.4093 12.365 38.708 13.6665 38.6667C16.5165 38.6667 18.6664 37.52 18.6664 36V27.3335C18.6664 25.8135 16.5165 24.6669 13.6665 24.6669C13.3325 24.6666 12.9988 24.6833 12.6665 24.7169V14.667C12.6665 13.207 10.6819 12.095 7.9999 12.009V7.17974C9.13404 7.75619 10.3949 8.03839 11.6665 8.0004C12.9382 8.03839 14.199 7.75619 15.3331 7.17974V11.7264C14.8938 12.2177 14.4525 12.753 14.0172 13.3463C13.8178 13.6432 13.8882 14.0444 14.1766 14.2558C14.4651 14.4671 14.8689 14.4132 15.0918 14.1337C15.52 13.554 15.9789 12.9977 16.4665 12.467C16.4718 12.461 16.4765 12.455 16.4818 12.4497C17.7544 11.0353 19.2488 9.83769 20.9064 8.90372C21.2332 9.06136 21.5789 9.1763 21.9351 9.24572L20.2164 10.8497C19.9473 11.1012 19.9329 11.5232 20.1844 11.7923C20.4359 12.0615 20.8579 12.0758 21.1271 11.8243L23.7937 9.33705H24.0064V11.337C24.0064 11.7052 24.3048 12.0037 24.673 12.0037C25.0412 12.0037 25.3397 11.7052 25.3397 11.337V9.33371H25.5523L28.219 11.821C28.3931 11.9837 28.6408 12.0411 28.8687 11.9717C29.0966 11.9022 29.2702 11.7165 29.324 11.4844C29.3778 11.2522 29.3037 11.009 29.1296 10.8464L27.3997 9.23571C27.7537 9.16565 28.0971 9.05026 28.4216 8.89239C30.1836 9.84571 35.9756 13.6123 38.1449 22.8195C39.0882 26.8275 38.7482 29.8935 37.1349 31.9301C35.0709 34.5334 31.4896 34.6667 30.7929 34.6667H21.3331C20.9649 34.6667 20.6664 34.9652 20.6664 35.3334C20.6664 35.7016 20.9649 36 21.3331 36H30.7929C31.9263 36 35.7962 35.7661 38.1795 32.7581C40.0582 30.3855 40.4835 26.9388 39.4422 22.5142ZM4.99994 32.6668C7.20458 32.6668 8.66656 33.4667 8.66656 34.0001C8.66656 34.5334 7.20458 35.3334 4.99994 35.3334C2.7953 35.3334 1.33332 34.5334 1.33332 34.0001C1.33332 33.4667 2.7953 32.6668 4.99994 32.6668ZM4.99994 38.6667C2.7953 38.6667 1.33332 37.8667 1.33332 37.3334V35.8461C2.46746 36.4225 3.72828 36.7047 4.99994 36.6667C6.2716 36.7047 7.53242 36.4225 8.66656 35.8461V37.3334C8.66656 37.8667 7.20458 38.6667 4.99994 38.6667ZM13.6665 37.3334C11.4619 37.3334 9.99988 36.5334 9.99988 36V29.1795C11.134 29.7559 12.3948 30.0381 13.6665 30.0001C14.9382 30.0381 16.199 29.7559 17.3331 29.1795V36C17.3331 36.5334 15.8711 37.3334 13.6665 37.3334ZM17.3331 27.3335C17.3331 27.8668 15.8711 28.6668 13.6665 28.6668C11.4619 28.6668 9.99988 27.8668 9.99988 27.3335C9.99988 26.8002 11.4619 26.0002 13.6665 26.0002C15.8711 26.0002 17.3331 26.8002 17.3331 27.3335ZM8.66656 27.3335V32.1541C7.53242 31.5776 6.2716 31.2955 4.99994 31.3334C4.66598 31.3332 4.33222 31.3499 3.99995 31.3834V16.513C5.13409 17.0894 6.39491 17.3716 7.66657 17.3336C8.93823 17.3716 10.1991 17.0894 11.3332 16.513V24.9569C9.72255 25.3895 8.66656 26.2668 8.66656 27.3335ZM11.3332 14.667C11.3332 15.2003 9.87121 16.0003 7.66657 16.0003C5.46193 16.0003 3.99995 15.2003 3.99995 14.667C3.99995 14.1337 5.46193 13.3337 7.66657 13.3337C9.87121 13.3337 11.3332 14.1337 11.3332 14.667ZM11.6665 6.66708C9.46188 6.66708 7.9999 5.86709 7.9999 5.33376C7.9999 4.80044 9.46188 4.00045 11.6665 4.00045C13.8712 4.00045 15.3331 4.80044 15.3331 5.33376C15.3331 5.86709 13.8712 6.66708 11.6665 6.66708ZM33.1329 6.00042C33.1329 7.09308 31.9496 7.98973 30.4663 8.0004C30.2182 7.99883 29.971 7.97044 29.729 7.91573C30.6965 6.88345 31.3691 5.61021 31.6763 4.22911C32.4787 4.46555 33.0559 5.16741 33.1329 6.00042ZM19.2451 1.85381C19.8081 2.38136 20.5522 2.67251 21.3237 2.66713C22.0957 2.67293 22.8404 2.38174 23.4037 1.85381C23.7332 1.5211 24.1821 1.33393 24.6504 1.33393C25.1186 1.33393 25.5675 1.5211 25.897 1.85381C26.4603 2.38213 27.2054 2.67337 27.9776 2.66713C28.7499 2.6731 29.4948 2.3819 30.0583 1.85381C30.243 1.69053 30.4486 1.55244 30.6696 1.44315C30.6696 2.68113 30.4396 5.74176 28.2916 7.41974C27.8084 7.78266 27.2226 7.98314 26.6183 7.9924C27.1954 7.00115 27.6522 5.94459 27.979 4.8451C28.0428 4.6155 27.9793 4.36929 27.8124 4.19921C27.6455 4.02913 27.4005 3.96103 27.1697 4.02055C26.939 4.08007 26.7575 4.25817 26.6937 4.48777C26.3244 5.74093 25.7568 6.92684 25.0124 8.0004H24.327C23.584 6.92589 23.0163 5.74027 22.6451 4.48777C22.5462 4.13303 22.1785 3.92559 21.8237 4.02445C21.469 4.1233 21.2615 4.49102 21.3604 4.84577C21.6875 5.9462 22.1447 7.00366 22.7224 7.99573C22.106 7.99257 21.5071 7.79082 21.0144 7.4204C18.8664 5.74309 18.6364 2.68246 18.6364 1.44848C18.8574 1.55432 19.0623 1.69078 19.2451 1.85381Z" fill="#FAB32F"/>
<path d="M36.0895 31.1017C36.8796 30.0153 37.3078 28.7078 37.3135 27.3644C37.322 27.1878 37.26 27.015 37.1411 26.8841C37.0222 26.7532 36.8561 26.6749 36.6795 26.6664C36.3134 26.6535 36.0037 26.9348 35.9815 27.3004C35.9865 28.3651 35.6585 29.4047 35.0435 30.2737C33.7428 31.9164 31.2749 31.9997 30.7929 31.9997C30.4247 31.9997 30.1262 32.2982 30.1262 32.6664C30.1262 33.0346 30.4247 33.333 30.7929 33.333C31.3822 33.333 34.4068 33.2257 36.0895 31.1017Z" fill="#FAB32F"/>
</svg>
