<svg width="40" height="40" viewBox="0 0 40 40" fill="none" xmlns="http://www.w3.org/2000/svg">
<path d="M25.5175 10.1438C26.5944 10.1438 27.4706 9.24458 27.4706 8.13932C27.4706 7.03405 26.5944 6.13477 25.5175 6.13477C24.4405 6.13477 23.5644 7.03405 23.5644 8.13932C23.5644 8.59072 23.7106 9.00765 23.9569 9.34312L20.7479 13.9455C20.5564 13.8809 20.3521 13.8455 20.1397 13.8455C19.6265 13.8455 19.1592 14.05 18.8103 14.3834L16.6713 13.1377C16.6998 13.0018 16.7151 12.8608 16.7151 12.7162C16.7151 11.611 15.839 10.7118 14.762 10.7118C13.6851 10.7118 12.8089 11.611 12.8089 12.7162C12.8089 12.8608 12.8242 13.0018 12.8527 13.1377L10.7137 14.3834C10.3648 14.05 9.89748 13.8456 9.38428 13.8456C8.30732 13.8456 7.43115 14.7448 7.43115 15.8501C7.43115 16.9554 8.30732 17.8547 9.38428 17.8547C10.4612 17.8547 11.3374 16.9554 11.3374 15.8501C11.3374 15.7055 11.3221 15.5646 11.2936 15.4286L13.4326 14.183C13.7815 14.5163 14.2488 14.7209 14.762 14.7209C15.2752 14.7209 15.7425 14.5163 16.0915 14.183L18.2304 15.4287C18.2019 15.5647 18.1866 15.7056 18.1866 15.8502C18.1866 16.9555 19.0628 17.8547 20.1397 17.8547C21.2168 17.8547 22.0929 16.9555 22.0929 15.8502C22.0929 15.3987 21.9466 14.9817 21.7003 14.6462L24.9094 10.0439C25.1008 10.1083 25.3051 10.1438 25.5175 10.1438ZM25.5175 7.33745C25.9483 7.33745 26.2987 7.69713 26.2987 8.13932C26.2987 8.58142 25.9483 8.9411 25.5175 8.9411C25.0867 8.9411 24.7362 8.58142 24.7362 8.13932C24.7362 7.69713 25.0866 7.33745 25.5175 7.33745ZM9.38404 16.6518C8.95326 16.6518 8.60279 16.2921 8.60279 15.85C8.60279 15.4078 8.95326 15.0481 9.38404 15.0481C9.81482 15.0481 10.1653 15.4078 10.1653 15.85C10.1653 16.2921 9.81482 16.6518 9.38404 16.6518ZM14.7619 13.518C14.3311 13.518 13.9806 13.1583 13.9806 12.7162C13.9806 12.2741 14.3311 11.9144 14.7619 11.9144C15.1926 11.9144 15.5431 12.2741 15.5431 12.7162C15.5432 13.1583 15.1926 13.518 14.7619 13.518ZM20.1397 16.6518C19.7089 16.6518 19.3584 16.2921 19.3584 15.85C19.3584 15.4078 19.7089 15.0481 20.1397 15.0481C20.5705 15.0481 20.921 15.4078 20.921 15.85C20.921 16.2921 20.5704 16.6518 20.1397 16.6518Z" fill="#6D2CF8"/>
<path d="M32.7184 29.6996H28.618H6.28344H1.65742C1.38969 29.6996 1.17187 29.476 1.17187 29.2012V4.3924C1.17187 4.11763 1.38969 3.89409 1.65742 3.89409H4.41961C4.7432 3.89409 5.00555 3.62493 5.00555 3.29275C5.00555 2.96057 4.7432 2.69141 4.41961 2.69141H1.65742C0.743516 2.69141 0 3.45447 0 4.3924V29.2012C0 30.1392 0.743516 30.9022 1.65742 30.9022H5.6975V32.2257C5.6975 32.9796 6.29516 33.593 7.02977 33.593H12.8949L10.134 39.1251C9.98648 39.4208 10.1003 39.7831 10.3884 39.9345C10.4738 39.9795 10.5651 40.0008 10.655 40.0008C10.8679 40.0008 11.0733 39.8813 11.177 39.6734L14.2116 33.593H20.6898L23.7245 39.6734C23.8282 39.8813 24.0335 40.0008 24.2464 40.0008C24.3363 40.0008 24.4276 39.9794 24.513 39.9345C24.8011 39.7831 24.915 39.4208 24.7674 39.1251L22.0065 33.593H27.8716C28.6062 33.593 29.2039 32.9797 29.2039 32.2257V30.9022H32.7184C33.042 30.9022 33.3044 30.6331 33.3044 30.3009C33.3044 29.9687 33.042 29.6996 32.7184 29.6996ZM28.032 32.2257C28.032 32.3164 27.9601 32.3903 27.8716 32.3903H7.02977C6.94133 32.3903 6.86937 32.3164 6.86937 32.2257V30.9022H28.032V32.2257Z" fill="#6D2CF8"/>
<path d="M6.76331 3.89332H14.7846H20.1167H33.2439C33.5116 3.89332 33.7294 4.11686 33.7294 4.39163V10.1093C33.7294 10.4414 33.9917 10.7106 34.3153 10.7106C34.6389 10.7106 34.9013 10.4414 34.9013 10.1093V4.39163C34.9013 3.4537 34.1578 2.69064 33.2439 2.69064H20.7027V1.50864C20.7027 0.676789 20.0432 0 19.2326 0H15.6687C14.8581 0 14.1986 0.676789 14.1986 1.50864V2.69064H6.76331C6.43971 2.69064 6.17737 2.9598 6.17737 3.29198C6.17737 3.62416 6.43971 3.89332 6.76331 3.89332ZM15.3705 1.50864C15.3705 1.33995 15.5042 1.20268 15.6687 1.20268H19.2326C19.397 1.20268 19.5308 1.33995 19.5308 1.50864V2.69064H15.3706V1.50864H15.3705Z" fill="#6D2CF8"/>
<path d="M8.19543 20.9277C7.87184 20.9277 7.6095 21.1969 7.6095 21.5291V26.8427C7.6095 27.1749 7.87184 27.444 8.19543 27.444H10.5725C10.8961 27.444 11.1585 27.1749 11.1585 26.8427V21.5291C11.1585 21.1969 10.8961 20.9277 10.5725 20.9277H8.19543ZM9.98661 26.2414H8.78137V22.1305H9.98661V26.2414Z" fill="#6D2CF8"/>
<path d="M13.5732 17.8555C13.2496 17.8555 12.9873 18.1246 12.9873 18.4568V26.8436C12.9873 27.1758 13.2496 27.4449 13.5732 27.4449H15.9504C16.2739 27.4449 16.5363 27.1758 16.5363 26.8436V18.4568C16.5363 18.1246 16.2739 17.8555 15.9504 17.8555H13.5732ZM15.3645 26.2423H14.1593V19.0582H15.3645V26.2423Z" fill="#6D2CF8"/>
<path d="M18.951 20.9277C18.6275 20.9277 18.3651 21.1969 18.3651 21.5291V26.8427C18.3651 27.1749 18.6275 27.444 18.951 27.444H21.3282C21.6518 27.444 21.9141 27.1749 21.9141 26.8427V21.5291C21.9141 21.1969 21.6518 20.9277 21.3282 20.9277H18.951ZM20.7422 26.2414H19.537V22.1305H20.7422V26.2414Z" fill="#6D2CF8"/>
<path d="M24.3289 24.4766C24.0053 24.4766 23.7429 24.7457 23.7429 25.0779V26.8432C23.7429 27.1754 24.0053 27.4445 24.3289 27.4445H26.706C27.0296 27.4445 27.2919 27.1754 27.2919 26.8432C27.2919 26.511 27.0296 26.2419 26.706 26.2419H24.9148V25.0779C24.9148 24.7457 24.6525 24.4766 24.3289 24.4766Z" fill="#6D2CF8"/>
<path d="M39.7012 30.265L36.3397 24.2896C37.1913 23.358 37.8115 22.2197 38.1427 20.951C38.6722 18.9232 38.4005 16.8051 37.3776 14.9869C35.2662 11.2335 30.5732 9.94321 26.9162 12.11C23.2591 14.2769 22.0016 19.0933 24.113 22.8465C25.1358 24.6647 26.7873 25.9652 28.7632 26.5086C29.423 26.6901 30.0925 26.7798 30.7577 26.7798C31.3391 26.7798 31.9172 26.7112 32.4825 26.5753L35.8433 32.5509C36.2552 33.2835 37.0054 33.6935 37.7758 33.6934C38.1534 33.6934 38.5359 33.5948 38.8858 33.3876C39.573 32.9806 40 32.2215 40 31.4068C40 31.0075 39.8967 30.6128 39.7012 30.265ZM29.0665 25.3469C27.393 24.8867 25.9941 23.7851 25.1278 22.2452C23.3395 19.0663 24.4046 14.9869 27.502 13.1516C28.521 12.5478 29.6345 12.2611 30.7344 12.2611C32.9777 12.2611 35.1627 13.4552 36.3627 15.5883C37.229 17.1282 37.4591 18.9221 37.0107 20.6397C36.5623 22.3573 35.4889 23.7927 33.9884 24.6818C32.488 25.5709 30.7401 25.807 29.0665 25.3469ZM38.3001 32.346C37.796 32.6447 37.1491 32.4669 36.8583 31.9497L33.6248 26.2006C33.9489 26.0648 34.2662 25.9061 34.5745 25.7234C34.883 25.5406 35.1752 25.3371 35.4519 25.1168L38.6862 30.8662C38.779 31.0314 38.8281 31.2184 38.8281 31.4068C38.8281 31.7931 38.6258 32.1531 38.3001 32.346Z" fill="#6D2CF8"/>
<path d="M36.058 20.6111C36.4716 19.2436 36.3731 17.7796 35.7805 16.4887C35.6426 16.1882 35.2935 16.0594 35.0008 16.2009C34.708 16.3425 34.5825 16.7007 34.7205 17.0012C35.1879 18.0194 35.2655 19.1747 34.9388 20.2544C34.6104 21.34 33.9009 22.2511 32.9409 22.8199C31.9252 23.4219 30.7416 23.5816 29.6087 23.2701C28.4758 22.9585 27.5287 22.2128 26.9423 21.1703C25.7316 19.0182 26.4527 16.2566 28.5497 15.014C30.0829 14.1057 31.9856 14.2271 33.3974 15.3233C33.6555 15.5237 34.023 15.4715 34.2182 15.2066C34.4134 14.9418 34.3626 14.5646 34.1045 14.3643C32.3161 12.9755 29.9056 12.8218 27.9637 13.9724C26.6768 14.7349 25.7562 15.9661 25.3716 17.4392C24.987 18.9122 25.1845 20.4509 25.9274 21.7716C26.6704 23.0924 27.8701 24.037 29.3054 24.4318C29.7847 24.5636 30.2711 24.6288 30.7543 24.6288C31.7182 24.6288 32.6697 24.3694 33.5268 23.8614C34.743 23.1409 35.6419 21.9867 36.058 20.6111Z" fill="#6D2CF8"/>
</svg>
