<svg width="40" height="40" viewBox="0 0 40 40" fill="none" xmlns="http://www.w3.org/2000/svg">
<path d="M40 6.51758C40 5.00734 39.7271 3.52523 39.1887 2.11219C39.001 1.61969 38.4226 1.34961 37.8994 1.51086C37.156 1.73984 36.2208 1.32664 35.231 0.889141C34.2883 0.472344 33.2195 0 32.0943 0C30.9691 0 29.9002 0.472344 28.9574 0.889063C27.9676 1.32648 27.0328 1.73969 26.289 1.51078C25.7656 1.34984 25.1872 1.61969 24.9997 2.11227C24.4615 3.52508 24.1885 5.00727 24.1885 6.51758C24.1885 6.73828 24.1964 6.95664 24.2081 7.17359C22.2035 6.40289 20.0129 5.97656 17.7185 5.97656C8.20233 5.97656 0.460341 13.2838 0.460341 22.2656C0.460341 24.3194 0.866921 26.2846 1.60525 28.0959L0.355964 29.275C-0.118655 29.723 -0.118655 30.4521 0.355964 30.9002L9.64051 39.6634C9.87045 39.8805 10.1763 40 10.5015 40C10.8267 40 11.1325 39.8805 11.3625 39.6634L13.1518 37.9745C14.607 38.352 16.138 38.5547 17.7184 38.5547C19.2988 38.5547 20.8298 38.352 22.285 37.9745L24.0743 39.6633C24.3042 39.8804 24.6101 39.9999 24.9353 39.9999C25.2605 39.9999 25.5662 39.8804 25.7963 39.6633L29.3519 36.3073C29.5943 36.0785 29.5943 35.7075 29.3519 35.4787C29.1093 35.2499 28.7163 35.2499 28.4739 35.4787L24.9353 38.8187L21.6973 35.7625L30.948 27.0313L34.1859 30.0875L30.5223 33.5452C30.2799 33.7741 30.2799 34.1451 30.5223 34.3738C30.7649 34.6027 31.1579 34.6027 31.4003 34.3738L35.0807 30.9001C35.3107 30.683 35.4374 30.3944 35.4374 30.0874C35.4374 29.7804 35.3108 29.4918 35.0807 29.2748L33.8315 28.0957C34.5699 26.2845 34.9764 24.3192 34.9764 22.2655C34.9764 20.2886 34.5994 18.3938 33.9128 16.6394C37.8516 14.2703 40 10.7229 40 6.51758ZM10.5016 38.8187L1.2509 30.0876L4.48881 27.0315L13.7395 35.7627L10.5016 38.8187ZM16.8994 15.9974H18.1246L19.2811 17.089C19.5084 17.3036 19.6298 17.5889 19.6227 17.8924C19.6156 18.1956 19.4805 18.476 19.2424 18.6818C18.789 19.0734 18.0482 19.041 17.591 18.6094L13.4873 14.7361C13.0323 14.3066 13.0323 13.6078 13.4872 13.1783C13.6585 13.0167 13.8701 12.9169 14.0916 12.8772C14.09 12.9048 14.0871 12.932 14.0871 12.9599V13.3431C14.0871 14.8067 15.3487 15.9974 16.8994 15.9974ZM15.3287 13.3431V12.9599C15.3287 12.7739 15.4892 12.6226 15.6862 12.6226H18.8784C19.2952 12.6226 19.6711 12.8314 19.878 13.1558L18.1087 14.8257H16.8994C16.0333 14.8255 15.3287 14.1605 15.3287 13.3431ZM17.2211 19.9175C17.4439 20.1278 17.5653 20.4075 17.5629 20.705C17.5604 21.0025 17.4343 21.2804 17.208 21.4874C16.7531 21.9035 16.0185 21.8981 15.5707 21.4753L10.9589 17.1225H10.9588C10.7384 16.9145 10.617 16.6378 10.617 16.3436C10.617 16.0494 10.7384 15.7727 10.9589 15.5647C11.1793 15.3566 11.4724 15.2421 11.7842 15.2421C12.0959 15.2421 12.389 15.3566 12.6093 15.5647L17.2211 19.9175ZM13.8672 21.5248C14.0901 21.7352 14.2115 22.0149 14.209 22.3124C14.2066 22.6099 14.0805 22.8877 13.8541 23.0948C13.3992 23.511 12.6647 23.5055 12.2168 23.0827L9.2043 20.2394L8.43045 19.509C8.21003 19.3009 8.08868 19.0243 8.08868 18.7301C8.08868 18.4359 8.21003 18.1592 8.43045 17.9512C8.65799 17.7364 8.95689 17.6291 9.25578 17.6291C9.55451 17.6291 9.85332 17.7363 10.0808 17.9509L10.081 17.9512L13.8672 21.5248ZM8.3255 21.0672L10.3431 22.9715C10.5657 23.1818 10.6869 23.4613 10.6844 23.7585C10.682 24.056 10.5559 24.3339 10.3296 24.5409C9.87459 24.957 9.14015 24.9516 8.69226 24.5288L6.67583 22.6256C6.22083 22.1961 6.22083 21.4973 6.67575 21.0678C6.90329 20.853 7.20219 20.7457 7.50108 20.7457C7.79956 20.7459 8.09804 20.853 8.3255 21.0672ZM9.51784 26.0194C10.1233 26.0194 10.7292 25.8074 11.1937 25.3825C11.5271 25.0776 11.7543 24.698 11.8594 24.2827C12.2246 24.4758 12.6333 24.5731 13.0424 24.5731C13.6479 24.5731 14.2537 24.3612 14.7182 23.9363C15.0707 23.6139 15.3051 23.2083 15.4012 22.7649C15.716 22.8985 16.056 22.9658 16.3962 22.9658C17.0017 22.9658 17.6076 22.7538 18.0721 22.3289C18.5392 21.9016 18.7993 21.3281 18.8044 20.7141C18.806 20.5109 18.7791 20.3117 18.7264 20.1204C19.2171 20.0718 19.6927 19.8815 20.0807 19.5462C20.5712 19.1224 20.8493 18.5443 20.8639 17.9184C20.8785 17.2921 20.6281 16.7033 20.1589 16.2605L19.2517 15.4041L21.2333 13.5337C21.6886 13.1044 22.4289 13.1043 22.8838 13.5337C23.3383 13.9627 23.3388 14.6605 22.8855 15.0901C22.885 15.0905 22.8845 15.091 22.8839 15.0916C22.6415 15.3204 22.6415 15.6914 22.884 15.9202C23.1264 16.149 23.5194 16.1489 23.7619 15.9202C24.2168 15.4907 24.9573 15.4907 25.4122 15.9202C25.8667 16.3491 25.8672 17.0469 25.4138 17.4765C25.4133 17.477 25.4128 17.4774 25.4123 17.478H25.4122C25.1698 17.7068 25.1698 18.0778 25.4122 18.3066C25.6546 18.5354 26.0477 18.5354 26.2901 18.3066C26.5106 18.0984 26.8036 17.9839 27.1154 17.9839C27.4271 17.9839 27.7202 18.0984 27.9406 18.3065C28.3957 18.736 28.3957 19.4348 27.9406 19.8643C27.6981 20.0931 27.6981 20.4641 27.9406 20.6929C28.183 20.9217 28.5761 20.9217 28.8185 20.6929C29.0443 20.4798 29.3421 20.365 29.6635 20.3705C29.9824 20.3755 30.2785 20.4998 30.4971 20.7204C30.9217 21.1488 30.8942 21.8493 30.4359 22.282L25.9817 26.486C25.7392 26.7148 25.7392 27.0859 25.9817 27.3146C26.2242 27.5434 26.6172 27.5434 26.8596 27.3146L27.9462 26.2895L28.9622 27.2484L22.3741 33.4666L18.8112 30.1038C19.318 29.9363 19.8575 29.8559 20.402 29.8751L21.5835 29.9163C22.6242 29.9532 23.6511 29.7138 24.5563 29.2255C24.8541 29.065 24.9575 28.707 24.7874 28.4261C24.6173 28.1451 24.2379 28.0475 23.9404 28.208C23.2365 28.5876 22.4365 28.7735 21.6294 28.7451L20.448 28.7039C18.9037 28.6492 17.3909 29.2106 16.2982 30.242L12.9724 33.3811L6.58867 27.3559L8.32061 25.7212C8.68937 25.9196 9.10339 26.0194 9.51784 26.0194ZM17.7185 37.3828C16.5014 37.3828 15.3166 37.2515 14.1766 37.0073L14.6344 36.5752C14.8644 36.3582 14.9911 36.0695 14.9911 35.7626C14.9911 35.4555 14.8645 35.167 14.6344 34.9499L13.8503 34.2098L17.1762 31.0707C17.3282 30.9272 17.4911 30.796 17.6624 30.6766L21.4962 34.2952L20.8025 34.9499C20.328 35.398 20.328 36.127 20.8026 36.5752L21.2604 37.0073C20.1204 37.2515 18.9356 37.3828 17.7185 37.3828ZM33.735 22.2656C33.735 23.9864 33.4283 25.6407 32.8645 27.183L31.809 26.1869C31.5791 25.9698 31.2733 25.8502 30.948 25.8502C30.6228 25.8502 30.317 25.9698 30.087 26.1869L29.8402 26.4198L28.8242 25.4609L31.3142 23.1107C32.2406 22.2362 32.2811 20.8048 31.4042 19.92C30.9537 19.4653 30.3429 19.2092 29.6845 19.1988C29.6296 19.1979 29.5747 19.1988 29.5201 19.2014C29.5533 18.5812 29.3196 17.9505 28.8189 17.4779C28.364 17.0485 27.7591 16.812 27.1158 16.812C27.0742 16.812 27.0328 16.813 26.9917 16.815C27.0249 16.1948 26.7912 15.5641 26.2904 15.0915C25.7893 14.6185 25.1212 14.3983 24.4632 14.4297C24.4968 13.8091 24.2631 13.178 23.762 12.7051C22.9625 11.9505 21.7366 11.8388 20.8101 12.3689C20.3656 11.8052 19.6574 11.4507 18.8786 11.4507H15.6863C15.3437 11.4507 15.0267 11.5538 14.7661 11.7277C14.0085 11.5912 13.1949 11.7972 12.6094 12.3496C12.1086 12.8223 11.8751 13.453 11.9084 14.0732C11.8672 14.0712 11.8258 14.0702 11.7842 14.0702C11.1408 14.0702 10.5359 14.3066 10.0811 14.736C9.62611 15.1654 9.37555 15.7363 9.37555 16.3436C9.37555 16.3828 9.37671 16.4219 9.37878 16.4608C8.72173 16.4294 8.0535 16.6498 7.55273 17.1225C7.09773 17.5519 6.84726 18.1228 6.84726 18.7301C6.84726 19.0398 6.91281 19.34 7.03705 19.6169C6.5828 19.7005 6.14923 19.9079 5.79803 20.2393C4.85897 21.1257 4.85897 22.568 5.79803 23.4544L7.38247 24.9498L5.71095 26.5275L5.35006 26.1869C5.12012 25.9698 4.81427 25.8502 4.48906 25.8502C4.16384 25.8502 3.85808 25.9698 3.62814 26.1869L2.5727 27.183C2.00902 25.6407 1.70226 23.9864 1.70226 22.2656C1.70226 13.93 8.88728 7.14844 17.7188 7.14844C20.0864 7.14844 22.3346 7.63742 24.3588 8.51156C25.0098 12.2755 27.5302 15.3755 31.6206 17.3693C31.769 17.4416 31.9318 17.4779 32.0946 17.4779C32.2573 17.4779 32.4202 17.4417 32.5684 17.3694C32.6549 17.3272 32.7392 17.2835 32.8242 17.2404C33.4131 18.8134 33.735 20.5045 33.735 22.2656ZM32.0943 16.2809C30.0399 15.2638 28.4235 13.9525 27.2888 12.382C26.0554 10.6747 25.43 8.70164 25.43 6.51758C25.43 5.20328 25.6569 3.91281 26.1048 2.67867C27.2474 2.93883 28.3834 2.4368 29.4838 1.95039C30.3498 1.56766 31.2453 1.17188 32.0943 1.17188C32.9432 1.17188 33.8386 1.56766 34.7046 1.95039C35.8051 2.43688 36.9411 2.93891 38.0836 2.67867C38.5315 3.91273 38.7584 5.20336 38.7584 6.51758C38.7584 8.70164 38.133 10.6747 36.8996 12.382C35.765 13.9524 34.1486 15.2638 32.0943 16.2809Z" fill="#C9F31D"/>
<path d="M36.3782 7.27703C36.7054 7.18039 36.8875 6.85164 36.7851 6.54281C36.1402 4.59781 34.255 3.29102 32.0942 3.29102C29.3841 3.29102 27.1792 5.37203 27.1792 7.92992C27.1792 10.4878 29.3841 12.5688 32.0942 12.5688C34.105 12.5688 35.8929 11.432 36.6492 9.67242C36.778 9.37258 36.625 9.03086 36.3072 8.90922C35.9894 8.78742 35.6274 8.93203 35.4985 9.23187C34.9333 10.547 33.5969 11.3969 32.0941 11.3969C30.0686 11.3969 28.4207 9.84156 28.4207 7.92984C28.4207 6.01813 30.0686 4.46281 32.0941 4.46281C33.7092 4.46281 35.1182 5.43937 35.6002 6.89281C35.7026 7.20172 36.0513 7.37367 36.3782 7.27703Z" fill="#C9F31D"/>
<path d="M33.721 6.50561L31.804 8.31506L30.4675 7.05365C30.225 6.82482 29.832 6.82482 29.5895 7.05365C29.3471 7.28248 29.3471 7.6535 29.5895 7.88225L31.3649 9.55795C31.4862 9.67232 31.6451 9.72959 31.804 9.72959C31.9628 9.72959 32.1217 9.6724 32.243 9.55795L34.599 7.3342C34.8415 7.10537 34.8415 6.73436 34.599 6.50561C34.3565 6.27678 33.9635 6.27678 33.721 6.50561Z" fill="#C9F31D"/>
</svg>
