<svg width="21" height="21" viewBox="0 0 21 21" fill="none" xmlns="http://www.w3.org/2000/svg">
<path d="M6.44531 1.47656L8.00781 5.22656C8.24219 5.92969 8.08594 6.52865 7.53906 7.02344L5.625 8.58594C6.27604 9.96615 7.13542 11.2031 8.20312 12.2969C9.29688 13.3646 10.5339 14.224 11.9141 14.875L13.4766 12.9609C13.9714 12.4141 14.5703 12.2578 15.2734 12.4922L19.0234 14.0547C19.4141 14.2109 19.6875 14.4583 19.8438 14.7969C20 15.1615 20.0391 15.5391 19.9609 15.9297L19.0234 19.3672C18.763 20.0703 18.2552 20.4479 17.5 20.5C14.2448 20.474 11.3021 19.6797 8.67188 18.1172C6.04167 16.5547 3.94531 14.4583 2.38281 11.8281C0.820312 9.19792 0.0260417 6.25521 0 3C0.0520833 2.24479 0.429688 1.73698 1.13281 1.47656L4.57031 0.539062C4.96094 0.460938 5.33854 0.5 5.70312 0.65625C6.04167 0.8125 6.28906 1.08594 6.44531 1.47656Z" fill="#6D2CF8"/>
</svg>
