<svg width="65" height="65" viewBox="0 0 65 65" fill="none" xmlns="http://www.w3.org/2000/svg">
<g clip-path="url(#clip0_1798_911)">
<path d="M39.9946 15.1573C41.5015 15.1573 42.7275 13.9309 42.7275 12.4235V8.85863C42.7275 7.35132 41.5015 6.125 39.9946 6.125H12.9604C11.4535 6.125 10.2275 7.35132 10.2275 8.85863V12.4236C10.2275 13.9309 11.4535 15.1574 12.9604 15.1574L39.9946 15.1573ZM12.7881 12.4236V8.85863C12.7881 8.76636 12.8686 8.68565 12.9604 8.68565H39.9946C40.0865 8.68565 40.167 8.76649 40.167 8.85863V12.4236C40.167 12.5174 40.088 12.5967 39.9946 12.5967H12.9604C12.867 12.5967 12.7881 12.5174 12.7881 12.4236Z" fill="#FAB32F"/>
<path d="M48.1886 23.4766C43.8268 23.4766 40.2783 27.0284 40.2783 31.394C40.2783 35.7577 43.8268 39.3079 48.1886 39.3079C52.5503 39.3079 56.0988 35.7577 56.0988 31.394C56.099 27.0284 52.5504 23.4766 48.1886 23.4766ZM48.1886 36.7473C45.2387 36.7473 42.8388 34.346 42.8388 31.394C42.8388 28.4402 45.2387 26.0372 48.1886 26.0372C51.1384 26.0372 53.5383 28.4402 53.5383 31.394C53.5384 34.3458 51.1386 36.7473 48.1886 36.7473Z" fill="#FAB32F"/>
<path d="M10.2275 27.8779C10.2275 29.5042 11.5518 30.8274 13.1797 30.8274H25.9473C27.5751 30.8274 28.8994 29.5042 28.8994 27.8779V21.7696C28.8994 20.1412 27.5751 18.8164 25.9473 18.8164H13.1797C11.5518 18.8164 10.2275 20.1412 10.2275 21.7696V27.8779ZM12.7881 21.7696C12.7881 21.5568 12.9674 21.3771 13.1797 21.3771H25.9473C26.1596 21.3771 26.3389 21.5568 26.3389 21.7696V27.8779C26.3389 28.0887 26.1596 28.2667 25.9473 28.2667H13.1797C12.9674 28.2667 12.7881 28.0887 12.7881 27.8779V21.7696Z" fill="#FAB32F"/>
<path d="M12.6189 36.6074H27.6192C28.3262 36.6074 28.8994 36.0341 28.8994 35.3271C28.8994 34.6201 28.3262 34.0469 27.6192 34.0469H12.6189C11.9119 34.0469 11.3386 34.6201 11.3386 35.3271C11.3386 36.0341 11.9119 36.6074 12.6189 36.6074Z" fill="#FAB32F"/>
<path d="M30.8012 40.2656H12.6189C11.9119 40.2656 11.3386 40.8389 11.3386 41.5459C11.3386 42.2529 11.9119 42.8261 12.6189 42.8261H30.8012C31.5082 42.8261 32.0814 42.2529 32.0814 41.5459C32.0814 40.8389 31.5082 40.2656 30.8012 40.2656Z" fill="#FAB32F"/>
<path d="M28.3271 47.7646C28.3271 48.4718 28.9004 49.0449 29.6074 49.0449H35.2271C35.9341 49.0449 36.5073 48.4716 36.5073 47.7646C36.5073 47.0576 35.9341 46.4844 35.2271 46.4844H29.6074C28.9004 46.4844 28.3271 47.0575 28.3271 47.7646Z" fill="#FAB32F"/>
<path d="M12.6189 46.4844C11.9119 46.4844 11.3386 47.0576 11.3386 47.7646C11.3386 48.4716 11.9119 49.0449 12.6189 49.0449H18.2134C18.9204 49.0449 19.4937 48.4716 19.4937 47.7646C19.4937 47.0576 18.9204 46.4844 18.2134 46.4844H12.6189Z" fill="#FAB32F"/>
<path d="M5.65087 40.9512C6.35788 40.9512 6.93113 40.378 6.93113 39.671V39.6494C6.93113 38.9423 6.35788 38.3691 5.65087 38.3691C4.94385 38.3691 4.37061 38.9424 4.37061 39.6494V39.671C4.37061 40.378 4.94385 40.9512 5.65087 40.9512Z" fill="#FAB32F"/>
<path d="M23.8979 46.4844C23.1909 46.4844 22.6177 47.0576 22.6177 47.7646C22.6177 48.4716 23.1909 49.0449 23.8979 49.0449H23.9231C24.6301 49.0449 25.2033 48.4716 25.2033 47.7646C25.2033 47.0576 24.6301 46.4844 23.9231 46.4844H23.8979Z" fill="#FAB32F"/>
<path d="M61.8587 27.3255H61.3633C61.1101 26.5031 60.7799 25.7059 60.3755 24.9412L60.7328 24.5825C61.8581 23.4565 61.8581 21.6246 60.7329 20.4988L59.0717 18.8368C58.5273 18.2921 57.8015 17.9922 57.0282 17.9922C56.2548 17.9922 55.529 18.2921 54.9845 18.8369L54.6288 19.1927C53.8526 18.7821 53.0436 18.4483 52.2087 18.1945V17.7167C52.2087 16.3486 51.2538 15.2002 49.9758 14.9012V3.80931C49.9759 1.70883 48.2679 0 46.1683 0H8.17863C6.07891 0 4.37072 1.70883 4.37072 3.80931V33.9623C4.37072 34.6694 4.94396 35.2426 5.65098 35.2426C6.35799 35.2426 6.93124 34.6693 6.93124 33.9623V3.80931C6.93124 3.12083 7.49078 2.56065 8.17863 2.56065H46.1683C46.856 2.56065 47.4155 3.12083 47.4155 3.80931V14.8248H46.97C45.3757 14.8248 44.079 16.1222 44.079 17.7168V18.2244C43.2638 18.4791 42.4741 18.8102 41.7169 19.2151L41.3678 18.8658C40.8235 18.3211 40.0983 18.0212 39.3262 18.0212C38.554 18.0212 37.8288 18.3211 37.2854 18.8649L35.6172 20.5305C34.4954 21.6592 34.4967 23.4915 35.6197 24.6152L35.9891 24.9849C35.5956 25.7349 35.2734 26.5174 35.0248 27.3258H34.519C32.9248 27.3258 31.628 28.6232 31.628 30.2179V32.5669C31.628 34.1616 32.9249 35.4588 34.519 35.4588H35.0298C35.2821 36.2757 35.6102 37.0656 36.0107 37.8214L35.6521 38.1803C34.5268 39.3062 34.5268 41.1381 35.6519 42.264L37.3132 43.926C37.8575 44.4707 38.5833 44.7705 39.3567 44.7705C40.1301 44.7705 40.8559 44.4707 41.3986 43.9274L41.7568 43.5702C42.5137 43.9716 43.3055 44.3001 44.1257 44.5529V45.0713C44.1257 46.6639 45.4209 47.9596 47.0131 47.9596H47.4155V58.9859C47.4155 60.8903 45.8688 62.4397 43.9678 62.4397C42.0648 62.4397 40.5165 60.8904 40.5165 58.9859V55.6008C40.5165 54.0062 39.2213 52.7088 37.6291 52.7088H6.93124V45.359C6.93124 44.6519 6.35799 44.0788 5.65098 44.0788C4.94396 44.0788 4.37072 44.652 4.37072 45.359V52.7088H3.14503C1.55079 52.7085 0.253906 54.0059 0.253906 55.6005V58.9855C0.253906 62.3019 2.94908 65 6.26217 65H43.9678C47.2808 65 49.9761 62.3019 49.9761 58.9855V47.8935C51.2755 47.612 52.2521 46.4537 52.2521 45.0709V44.5548C53.0724 44.3033 53.8674 43.9741 54.6296 43.5701L54.9849 43.9256C55.5292 44.4703 56.255 44.7702 57.0284 44.7702C57.8018 44.7702 58.5276 44.4703 59.072 43.9255L60.733 42.2636C61.8583 41.1376 61.8583 39.3057 60.7347 38.1814L60.3759 37.8212C60.7759 37.0644 61.1033 36.2745 61.3555 35.4584H61.8591C63.4513 35.4584 64.7465 34.1612 64.7465 32.5666V30.2175C64.7461 28.6229 63.4509 27.3255 61.8587 27.3255ZM6.26217 62.4394C4.3612 62.4394 2.81443 60.89 2.81443 58.9855V55.6005C2.81443 55.4239 2.96888 55.2691 3.1449 55.2691H37.6289C37.8061 55.2691 37.9559 55.4208 37.9559 55.6005V58.9855C37.9559 60.2698 38.3603 61.4613 39.0484 62.4394H6.26217ZM62.1856 32.5666C62.1856 32.7461 62.0359 32.8978 61.8587 32.8978H60.3739C59.7766 32.8978 59.2587 33.3108 59.1257 33.893C58.846 35.1177 58.3639 36.2811 57.6929 37.3505C57.3761 37.8555 57.4498 38.5121 57.8703 38.9344L58.9218 39.99C59.0472 40.1155 59.0472 40.3278 58.9216 40.4533L57.2607 42.1152C57.1787 42.1972 57.0798 42.2095 57.0282 42.2095C56.9765 42.2095 56.8776 42.1972 56.7958 42.1153L55.746 41.0649C55.3234 40.6421 54.6646 40.5681 54.1586 40.8864C53.0827 41.5632 51.916 42.0462 50.6907 42.3217C50.1064 42.4531 49.6914 42.972 49.6914 43.5707V45.0708C49.6914 45.2485 49.5417 45.3986 49.3645 45.3986H47.0131C46.8359 45.3986 46.6862 45.2485 46.6862 45.0708V43.5707C46.6862 42.9733 46.2731 42.4553 45.6906 42.3226C44.4592 42.0417 43.2953 41.5588 42.2314 40.8872C42.021 40.7545 41.7841 40.6896 41.5484 40.6896C41.2183 40.6896 40.891 40.8171 40.644 41.0634L39.589 42.1153C39.5071 42.1973 39.4082 42.2096 39.3566 42.2096C39.3049 42.2096 39.206 42.1973 39.1242 42.1153L37.4629 40.4533C37.3376 40.3278 37.3376 40.1155 37.4631 39.99L38.5165 38.936C38.9391 38.5132 39.0129 37.854 38.694 37.3483C38.0221 36.2826 37.5393 35.12 37.259 33.893C37.126 33.3108 36.6081 32.8978 36.0108 32.8978H34.5188C34.3426 32.8978 34.1883 32.743 34.1883 32.5666V30.2175C34.1883 30.0409 34.3427 29.8861 34.5188 29.8861H36.0073C36.6052 29.8861 37.1235 29.4723 37.2558 28.8892C37.5326 27.6702 38.0093 26.5124 38.6724 25.4481C38.9871 24.9429 38.9122 24.2871 38.4913 23.866L37.4306 22.8048C37.3046 22.6787 37.3057 22.4637 37.4297 22.3388L39.0952 20.6758C39.1732 20.5979 39.2637 20.5815 39.326 20.5815C39.3881 20.5815 39.4786 20.5979 39.5564 20.6757L40.6027 21.7225C41.0266 22.1467 41.688 22.2197 42.194 21.8987C43.2648 21.2195 44.4268 20.732 45.6474 20.4496C46.2281 20.3154 46.6391 19.7982 46.6391 19.2023V17.7165C46.6391 17.5368 46.7905 17.3852 46.9696 17.3852H49.3174C49.4966 17.3852 49.6479 17.5368 49.6479 17.7165V19.1807C49.6479 19.7806 50.0644 20.3 50.65 20.4304C51.8891 20.7061 53.0697 21.1928 54.1595 21.8766C54.6651 22.1939 55.3234 22.1198 55.7456 21.6972L56.7953 20.6469C56.8773 20.5649 56.9761 20.5526 57.0278 20.5526C57.0794 20.5526 57.1783 20.5648 57.2601 20.6467L58.9214 22.3087C59.0468 22.4343 59.0468 22.6466 58.9197 22.7737L57.8699 23.8278C57.4495 24.2499 57.3758 24.9063 57.6921 25.4112C58.3684 26.4905 58.8529 27.6609 59.1323 28.8895C59.2647 29.4724 59.783 29.8861 60.3807 29.8861H61.8585C62.0356 29.8861 62.1854 30.0378 62.1854 30.2175V32.5666H62.1856Z" fill="#FAB32F"/>
</g>
<defs>
<clipPath id="clip0_1798_911">
<rect width="65" height="65" fill="white"/>
</clipPath>
</defs>
</svg>
