<svg width="20" height="21" viewBox="0 0 20 21" fill="none" xmlns="http://www.w3.org/2000/svg">
<path d="M10 0.5C11.8229 0.526042 13.4896 0.96875 15 1.82812C16.5104 2.71354 17.7344 3.9375 18.6719 5.5C19.5573 7.08854 20 8.75521 20 10.5C20 12.2448 19.5573 13.9115 18.6719 15.5C17.7344 17.0625 16.5104 18.2865 15 19.1719C13.4896 20.0312 11.8229 20.474 10 20.5C8.17708 20.474 6.51042 20.0312 5 19.1719C3.48958 18.2865 2.26562 17.0625 1.32812 15.5C0.442708 13.9115 0 12.2448 0 10.5C0 8.75521 0.442708 7.08854 1.32812 5.5C2.26562 3.9375 3.48958 2.71354 5 1.82812C6.51042 0.96875 8.17708 0.526042 10 0.5ZM9.0625 5.1875V10.5V5.1875V10.5C9.0625 10.8385 9.20573 11.099 9.49219 11.2812L13.2422 13.7812C13.737 14.0677 14.1667 13.9766 14.5312 13.5078C14.8177 13.013 14.7266 12.5833 14.2578 12.2188L10.9375 9.99219V5.1875C10.8854 4.61458 10.5729 4.30208 10 4.25C9.42708 4.30208 9.11458 4.61458 9.0625 5.1875Z" fill="#6D2CF8"/>
</svg>
