<svg width="15" height="21" viewBox="0 0 15 21" fill="none" xmlns="http://www.w3.org/2000/svg">
<path d="M8.4375 19.9922C8.17708 20.3047 7.86458 20.4609 7.5 20.4609C7.13542 20.4609 6.82292 20.3047 6.5625 19.9922C5.85938 19.1328 5 17.974 3.98438 16.5156C2.96875 15.0833 2.05729 13.599 1.25 12.0625C0.46875 10.526 0.0520833 9.17188 0 8C0.0520833 5.86458 0.78125 4.09375 2.1875 2.6875C3.59375 1.28125 5.36458 0.552083 7.5 0.5C9.63542 0.552083 11.4062 1.28125 12.8125 2.6875C14.2188 4.09375 14.9479 5.86458 15 8C14.9479 9.17188 14.5312 10.526 13.75 12.0625C12.9427 13.599 12.0312 15.0833 11.0156 16.5156C10 17.974 9.14062 19.1328 8.4375 19.9922ZM7.5 5.5C6.5625 5.52604 5.84635 5.94271 5.35156 6.75C4.88281 7.58333 4.88281 8.41667 5.35156 9.25C5.84635 10.0573 6.5625 10.474 7.5 10.5C8.4375 10.474 9.15365 10.0573 9.64844 9.25C10.1172 8.41667 10.1172 7.58333 9.64844 6.75C9.15365 5.94271 8.4375 5.52604 7.5 5.5Z" fill="#6D2CF8"/>
</svg>
