<svg width="20" height="15" viewBox="0 0 20 15" fill="none" xmlns="http://www.w3.org/2000/svg">
<path d="M1.875 0H18.125C18.6458 0.0260417 19.0885 0.208333 19.4531 0.546875C19.7917 0.911458 19.974 1.35417 20 1.875C19.974 2.5 19.7266 2.99479 19.2578 3.35938L10.7422 9.76562C10.2474 10.0781 9.7526 10.0781 9.25781 9.76562L0.742188 3.35938C0.273438 2.99479 0.0260417 2.5 0 1.875C0.0260417 1.35417 0.208333 0.911458 0.546875 0.546875C0.911458 0.208333 1.35417 0.0260417 1.875 0ZM0 4.375L8.51562 10.7422C8.95833 11.0807 9.45312 11.25 10 11.25C10.5469 11.25 11.0417 11.0807 11.4844 10.7422L20 4.375V12.5C19.974 13.2031 19.7266 13.7891 19.2578 14.2578C18.7891 14.7266 18.2031 14.974 17.5 15H2.5C1.79688 14.974 1.21094 14.7266 0.742188 14.2578C0.273438 13.7891 0.0260417 13.2031 0 12.5V4.375V12.5V4.375Z" fill="#6D2CF8"/>
</svg>
