<svg width="31" height="31" viewBox="0 0 31 31" fill="none" xmlns="http://www.w3.org/2000/svg">
<path d="M29.9414 23.4258L28.5938 29.3438C28.3203 30.2422 27.7148 30.7109 26.7773 30.75C21.8164 30.7109 17.3242 29.4805 13.3008 27.0586C9.27734 24.6758 6.07422 21.4727 3.69141 17.4492C1.26953 13.4258 0.0390625 8.93359 0 3.97266C0.0390625 3.03516 0.507813 2.42969 1.40625 2.15625L7.32422 0.808594C8.26172 0.652344 8.96484 1.00391 9.43359 1.86328L12.1289 8.19141C12.4414 9.05078 12.2656 9.77344 11.6016 10.3594L8.49609 12.8789C9.47266 14.9102 10.7617 16.7266 12.3633 18.3281C13.9648 19.9297 15.7812 21.2383 17.8125 22.2539L20.3906 19.0898C20.9766 18.4258 21.6992 18.25 22.5586 18.5625L28.8867 21.2578C29.707 21.7656 30.0586 22.4883 29.9414 23.4258Z" fill="white"/>
</svg>
