<svg width="33" height="30" viewBox="0 0 33 30" fill="none" xmlns="http://www.w3.org/2000/svg">
<path d="M32.9439 27.4102C32.8708 27.0478 31.1146 18.4917 24.7265 14.8057C24.5294 14.6913 24.3305 14.5825 24.1298 14.4793C24.1436 14.2358 24.152 13.9897 24.152 13.7422C24.152 6.36512 17.6236 0.566563 17.3442 0.323052C17.1062 0.114792 16.8007 0 16.4844 0C16.1681 0 15.8626 0.114792 15.6246 0.323052C15.3465 0.566563 8.81675 6.36577 8.81675 13.7422C8.81675 13.9897 8.82524 14.2358 8.83895 14.4793C8.63875 14.5811 8.43985 14.69 8.24225 14.8057C1.85418 18.4917 0.0980318 27.0478 0.0249133 27.4102C-0.0365921 27.7205 0.0166779 28.0426 0.174822 28.3167C0.332965 28.5907 0.585224 28.798 0.884708 28.9C1.09492 28.9718 4.18614 30 8.00788 30C10.5298 30 13.3703 29.5521 15.9073 28.0859C16.1036 27.9731 16.2953 27.8554 16.4824 27.7327C16.67 27.855 16.8617 27.9727 17.0576 28.0859C19.5972 29.5521 22.437 30 24.957 30C28.7781 30 31.87 28.9718 32.0802 28.9C32.3804 28.7987 32.6335 28.5917 32.7924 28.3176C32.9513 28.0435 33.0052 27.721 32.9439 27.4102ZM16.3277 15.5128C17.9894 15.541 19.643 15.7518 21.2586 16.1414L21.2391 16.2244C20.8812 17.4214 20.4264 18.5874 19.8792 19.7105C18.7746 21.7722 17.367 23.4187 16.4798 24.3523C15.6311 23.4611 14.3065 21.9198 13.2267 19.9828C12.6069 18.7533 12.0985 17.4708 11.7075 16.1506V16.1401C13.2219 15.7723 14.7701 15.562 16.3277 15.5128ZM16.4844 3.13877C18.0963 4.83616 21.4166 8.87726 21.5368 13.4889C19.8185 13.0176 18.0799 12.8694 16.4824 12.8949C14.8869 12.8694 13.149 13.0176 11.432 13.4889C11.5522 8.8766 14.8732 4.8342 16.4844 3.13877ZM2.88894 26.7482C3.54178 24.5148 5.36582 19.6505 9.2868 17.2239C9.64541 18.5388 10.1563 19.8074 10.8092 21.0038C11.6396 22.6692 12.7815 24.4574 14.3222 25.9804C10.2759 28.1433 5.15039 27.2927 2.88894 26.7482ZM18.6466 25.9804C20.1873 24.4574 21.3291 22.6692 22.1596 21.0038C22.8124 19.8074 23.3234 18.5388 23.682 17.2239C27.5886 19.6433 29.4185 24.5168 30.0799 26.7508C27.8191 27.2992 22.706 28.1538 18.6466 25.9804Z" fill="#FAB32F"/>
</svg>
