<svg width="19" height="19" viewBox="0 0 19 19" fill="none" xmlns="http://www.w3.org/2000/svg">
<g clip-path="url(#clip0_1674_718)">
<path d="M6.65 9.97656C2.945 9.97656 0 12.9216 0 16.6266V17.5766H13.3V16.6266C13.3 12.9216 10.355 9.97656 6.65 9.97656ZM1.995 15.6766C2.47 13.4916 4.37 11.8766 6.65 11.8766C8.93 11.8766 10.83 13.4916 11.305 15.6766H1.995Z" fill="#6D2CF8"/>
<path d="M6.64961 9.02578C8.73961 9.02578 10.4496 7.31578 10.4496 5.22578C10.4496 3.13578 8.73961 1.42578 6.64961 1.42578C4.55961 1.42578 2.84961 3.13578 2.84961 5.22578C2.84961 7.31578 4.55961 9.02578 6.64961 9.02578ZM6.64961 3.32578C7.69461 3.32578 8.54961 4.18078 8.54961 5.22578C8.54961 6.27078 7.69461 7.12578 6.64961 7.12578C5.60461 7.12578 4.74961 6.27078 4.74961 5.22578C4.74961 4.18078 5.60461 3.32578 6.64961 3.32578Z" fill="#6D2CF8"/>
<path d="M17.6705 5.70117L14.5355 8.83617L13.0155 7.41117L11.6855 8.74117L14.5355 11.5912L19.0005 7.03117L17.6705 5.70117Z" fill="#6D2CF8"/>
</g>
<defs>
<clipPath id="clip0_1674_718">
<rect width="19" height="19" fill="white"/>
</clipPath>
</defs>
</svg>
