<svg width="145" height="40" viewBox="0 0 145 40" fill="none" xmlns="http://www.w3.org/2000/svg">
<path d="M16.2796 24.0025C17.2283 24.864 18.4849 25.3885 19.8634 25.3885C22.8178 25.3885 25.2131 22.9767 25.2131 20.0018C25.2131 17.0273 22.8178 14.6133 19.8634 14.6133C18.4793 14.6133 17.2151 15.1435 16.2646 16.0145C16.2436 16.0318 16.2245 16.0508 16.2038 16.0719C15.2533 16.941 13.9908 17.4712 12.6069 17.4712C11.2229 17.4712 9.95867 16.941 9.01006 16.0719C8.98909 16.0508 8.97027 16.0318 8.94904 16.0145C7.99854 15.1435 6.73434 14.6133 5.35026 14.6133C2.39582 14.6133 0.000488281 17.0273 0.000488281 20.0018C0.000488281 22.9767 2.39582 25.3885 5.35026 25.3885C6.7287 25.3885 7.9851 24.864 8.93372 24.0025C8.96409 23.9757 8.99474 23.947 9.02511 23.9164C9.97184 23.0549 11.2285 22.5306 12.6069 22.5306C13.9854 22.5306 15.2399 23.0552 16.1885 23.9164C16.2189 23.947 16.2493 23.9757 16.2796 24.0025Z" fill="#FAB32F"/>
<path d="M19.8623 0C16.9073 0 14.5117 2.41212 14.5117 5.38775C14.5117 8.36339 16.9073 10.7755 19.8623 10.7755C24.9137 10.7755 29.0237 14.9142 29.0237 20.0001C29.0237 25.0864 24.9134 29.2248 19.8623 29.2248C16.9073 29.2248 14.5117 31.6369 14.5117 34.6125C14.5117 37.5879 16.9073 40 19.8623 40C30.832 40 39.7255 31.0452 39.7255 19.9999C39.7255 8.95451 30.832 0 19.8623 0Z" fill="#FAB32F"/>
<path d="M5.35085 10.7755C8.30604 10.7755 10.7017 8.36333 10.7017 5.38775C10.7017 2.41218 8.30604 0 5.35085 0C2.39566 0 0 2.41218 0 5.38775C0 8.36333 2.39566 10.7755 5.35085 10.7755Z" fill="#FAB32F"/>
<path d="M124.786 32.9184V7.08398H134.55C136.309 7.08398 137.862 7.39608 139.21 8.02027C140.58 8.64445 141.654 9.56918 142.43 10.7944C143.207 12.0197 143.595 13.5339 143.595 15.3371C143.595 17.0941 143.196 18.5968 142.396 19.8451C141.597 21.0704 140.523 21.9951 139.176 22.6193L145 32.9184H139.039L132.735 21.5096L136.161 23.5556H130.096V32.9184H124.786ZM130.096 18.8742H134.585C135.338 18.8742 135.989 18.7239 136.538 18.4234C137.086 18.1229 137.508 17.7067 137.805 17.175C138.125 16.6433 138.285 16.0307 138.285 15.3371C138.285 14.6205 138.125 13.9963 137.805 13.4646C137.508 12.9329 137.086 12.5167 136.538 12.2162C135.989 11.9157 135.338 11.7654 134.585 11.7654H130.096V18.8742Z" fill="white"/>
<path d="M107.486 33.3346C105.567 33.3346 103.786 32.9994 102.141 32.329C100.497 31.6586 99.0578 30.7223 97.8244 29.5202C96.6138 28.2949 95.666 26.8731 94.9807 25.2549C94.2955 23.6366 93.9529 21.8796 93.9529 19.984C93.9529 18.0883 94.2841 16.3313 94.9465 14.713C95.6317 13.0948 96.5796 11.6846 97.7902 10.4824C99.0236 9.28031 100.463 8.34403 102.107 7.6736C103.752 7.00318 105.545 6.66797 107.486 6.66797C109.428 6.66797 111.221 7.00318 112.865 7.6736C114.51 8.34403 115.937 9.28031 117.148 10.4824C118.381 11.6846 119.329 13.0948 119.992 14.713C120.677 16.3313 121.019 18.0883 121.019 19.984C121.019 21.8796 120.677 23.6366 119.992 25.2549C119.306 26.8731 118.347 28.2949 117.114 29.5202C115.903 30.7223 114.475 31.6586 112.831 32.329C111.186 32.9994 109.405 33.3346 107.486 33.3346ZM107.486 28.4798C108.651 28.4798 109.725 28.2718 110.707 27.8557C111.712 27.4395 112.591 26.8616 113.345 26.1218C114.099 25.3589 114.681 24.4573 115.092 23.417C115.503 22.3767 115.709 21.2323 115.709 19.984C115.709 18.7356 115.503 17.6028 115.092 16.5856C114.681 15.5453 114.099 14.6437 113.345 13.8808C112.591 13.1179 111.712 12.54 110.707 12.1469C109.725 11.7308 108.651 11.5228 107.486 11.5228C106.321 11.5228 105.236 11.7308 104.231 12.1469C103.249 12.54 102.381 13.1179 101.627 13.8808C100.874 14.6437 100.291 15.5453 99.8801 16.5856C99.469 17.6028 99.2634 18.7356 99.2634 19.984C99.2634 21.2323 99.469 22.3767 99.8801 23.417C100.291 24.4573 100.874 25.3589 101.627 26.1218C102.381 26.8616 103.249 27.4395 104.231 27.8557C105.236 28.2718 106.321 28.4798 107.486 28.4798Z" fill="white"/>
<path d="M68.7656 32.9184L77.3995 7.08398H84.4573L93.0912 32.9184H87.301L85.588 27.6475H76.2346L74.5215 32.9184H68.7656ZM77.7078 22.9661H84.1147L80.2089 10.7598H81.6479L77.7078 22.9661Z" fill="white"/>
<path d="M58.0866 33.3346C56.4877 33.3346 54.9802 33.0457 53.5641 32.4677C52.1708 31.8666 50.9602 31.0228 49.9324 29.9363C48.9274 28.8497 48.1736 27.5667 47.6711 26.0871L52.0223 24.1105C52.6619 25.5207 53.5413 26.6304 54.6605 27.4395C55.8025 28.2487 57.0588 28.6532 58.4292 28.6532C59.1601 28.6532 59.7882 28.5376 60.3136 28.3065C60.8389 28.0753 61.2501 27.7632 61.547 27.3702C61.8439 26.9541 61.9924 26.4686 61.9924 25.9137C61.9924 25.3127 61.8097 24.8041 61.4442 24.388C61.0788 23.9487 60.5077 23.6019 59.7311 23.3476L54.729 21.6831C52.6961 21.0127 51.1658 20.0649 50.138 18.8396C49.1101 17.5912 48.5962 16.1001 48.5962 14.3663C48.5962 12.8405 48.9617 11.4996 49.6926 10.3437C50.4463 9.18784 51.4856 8.28623 52.8103 7.63893C54.158 6.99162 55.6997 6.66797 57.4356 6.66797C58.966 6.66797 60.3821 6.93383 61.684 7.46554C62.986 7.99726 64.1052 8.74859 65.0417 9.71955C66.001 10.6905 66.7205 11.858 67.2001 13.2219L62.8832 15.1985C62.4035 13.9964 61.684 13.0601 60.7247 12.3897C59.7654 11.6961 58.669 11.3494 57.4356 11.3494C56.7276 11.3494 56.0994 11.465 55.5513 11.6961C55.0031 11.9273 54.5805 12.2625 54.2836 12.7018C53.9867 13.1179 53.8382 13.6034 53.8382 14.1582C53.8382 14.7593 54.0323 15.291 54.4206 15.7534C54.8089 16.1926 55.3914 16.5394 56.168 16.7937L61.0673 18.3888C63.123 19.0592 64.6534 19.9955 65.6584 21.1977C66.6862 22.3998 67.2001 23.8678 67.2001 25.6016C67.2001 27.1043 66.8118 28.4452 66.0352 29.6242C65.2586 30.7801 64.1851 31.6933 62.8147 32.3637C61.4671 33.011 59.891 33.3346 58.0866 33.3346Z" fill="white"/>
</svg>
