<svg width="182" height="50" viewBox="0 0 182 50" fill="none" xmlns="http://www.w3.org/2000/svg">
<path d="M20.4336 30.0021C21.6243 31.079 23.2016 31.7347 24.9318 31.7347C28.6402 31.7347 31.6467 28.7199 31.6467 25.0013C31.6467 21.2831 28.6402 18.2656 24.9318 18.2656C23.1946 18.2656 21.6078 18.9284 20.4147 20.0171C20.3884 20.0388 20.3645 20.0625 20.3385 20.0889C19.1455 21.1752 17.5607 21.838 15.8238 21.838C14.0865 21.838 12.4997 21.1752 11.3091 20.0889C11.2827 20.0625 11.2591 20.0388 11.2325 20.0171C10.0394 18.9284 8.45264 18.2656 6.71538 18.2656C3.00704 18.2656 0.000488281 21.2831 0.000488281 25.0013C0.000488281 28.7199 3.00704 31.7347 6.71538 31.7347C8.44555 31.7347 10.0226 31.079 11.2132 30.0021C11.2514 29.9686 11.2898 29.9328 11.3279 29.8945C12.5163 28.8176 14.0936 28.1623 15.8238 28.1623C17.5539 28.1623 19.1286 28.818 20.3193 29.8945C20.3574 29.9328 20.3955 29.9686 20.4336 30.0021Z" fill="#121212"/>
<path d="M24.9305 0C21.2215 0 18.2146 3.01515 18.2146 6.73469C18.2146 10.4542 21.2215 13.4694 24.9305 13.4694C31.2709 13.4694 36.4297 18.6427 36.4297 25.0002C36.4297 31.358 31.2705 36.531 24.9305 36.531C21.2215 36.531 18.2146 39.5461 18.2146 43.2656C18.2146 46.9849 21.2215 50 24.9305 50C38.6994 50 49.8622 38.8065 49.8622 24.9998C49.8622 11.1931 38.6994 0 24.9305 0Z" fill="#121212"/>
<path d="M6.71624 13.4694C10.4255 13.4694 13.4325 10.4542 13.4325 6.73469C13.4325 3.01522 10.4255 0 6.71624 0C3.00696 0 0 3.01522 0 6.73469C0 10.4542 3.00696 13.4694 6.71624 13.4694Z" fill="#121212"/>
<path d="M156.628 41.1465V8.85352H168.884C171.092 8.85352 173.041 9.24363 174.733 10.0239C176.453 10.8041 177.8 11.96 178.775 13.4916C179.75 15.0231 180.237 16.9159 180.237 19.1699C180.237 21.3662 179.735 23.2445 178.732 24.805C177.729 26.3365 176.381 27.4924 174.69 28.2727L182 41.1465H174.518L166.605 26.8856L170.905 29.443H163.294V41.1465H156.628ZM163.294 23.5913H168.927C169.873 23.5913 170.69 23.4034 171.378 23.0278C172.066 22.6521 172.597 22.1319 172.969 21.4673C173.371 20.8027 173.571 20.0369 173.571 19.1699C173.571 18.2741 173.371 17.4939 172.969 16.8292C172.597 16.1646 172.066 15.6444 171.378 15.2688C170.69 14.8931 169.873 14.7053 168.927 14.7053H163.294V23.5913Z" fill="white"/>
<path d="M134.914 41.6673C132.506 41.6673 130.269 41.2483 128.205 40.4103C126.141 39.5722 124.335 38.4019 122.787 36.8992C121.267 35.3676 120.077 33.5905 119.217 31.5676C118.357 29.5448 117.927 27.3486 117.927 24.979C117.927 22.6094 118.343 20.4132 119.174 18.3903C120.034 16.3675 121.224 14.6048 122.744 13.1021C124.292 11.5994 126.098 10.4291 128.162 9.59103C130.226 8.753 132.477 8.33398 134.914 8.33398C137.351 8.33398 139.601 8.753 141.665 9.59103C143.73 10.4291 145.521 11.5994 147.041 13.1021C148.589 14.6048 149.779 16.3675 150.61 18.3903C151.47 20.4132 151.9 22.6094 151.9 24.979C151.9 27.3486 151.47 29.5448 150.61 31.5676C149.75 33.5905 148.546 35.3676 146.998 36.8992C145.478 38.4019 143.687 39.5722 141.622 40.4103C139.558 41.2483 137.322 41.6673 134.914 41.6673ZM134.914 35.5988C136.376 35.5988 137.723 35.3388 138.956 34.8186C140.218 34.2984 141.321 33.576 142.267 32.6513C143.214 31.6977 143.945 30.5707 144.461 29.2703C144.977 27.9699 145.235 26.5394 145.235 24.979C145.235 23.4185 144.977 22.0025 144.461 20.731C143.945 19.4306 143.214 18.3036 142.267 17.35C141.321 16.3964 140.218 15.674 138.956 15.1827C137.723 14.6625 136.376 14.4025 134.914 14.4025C133.452 14.4025 132.09 14.6625 130.828 15.1827C129.596 15.674 128.506 16.3964 127.56 17.35C126.614 18.3036 125.883 19.4306 125.367 20.731C124.851 22.0025 124.593 23.4185 124.593 24.979C124.593 26.5394 124.851 27.9699 125.367 29.2703C125.883 30.5707 126.614 31.6977 127.56 32.6513C128.506 33.576 129.596 34.2984 130.828 34.8186C132.09 35.3388 133.452 35.5988 134.914 35.5988Z" fill="white"/>
<path d="M86.313 41.1465L97.15 8.85352H106.009L116.846 41.1465H109.578L107.428 34.5579H95.6878L93.5376 41.1465H86.313ZM97.537 28.7061H105.579L100.676 13.4482H102.482L97.537 28.7061Z" fill="white"/>
<path d="M72.9089 41.6673C70.902 41.6673 69.0099 41.3061 67.2324 40.5837C65.4835 39.8323 63.9641 38.7776 62.674 37.4194C61.4125 36.0612 60.4664 34.4574 59.8357 32.6079L65.2972 30.1372C66.0999 31.8999 67.2037 33.287 68.6085 34.2984C70.042 35.3099 71.6188 35.8156 73.3389 35.8156C74.2563 35.8156 75.0447 35.6711 75.7041 35.3821C76.3635 35.0931 76.8796 34.703 77.2523 34.2117C77.625 33.6916 77.8113 33.0847 77.8113 32.3912C77.8113 31.6399 77.582 31.0041 77.1233 30.484C76.6646 29.9349 75.9478 29.5014 74.9731 29.1836L68.6945 27.1029C66.1429 26.2649 64.2221 25.0801 62.932 23.5485C61.6419 21.9881 60.9968 20.1242 60.9968 17.9569C60.9968 16.0496 61.4555 14.3736 62.3729 12.9287C63.319 11.4838 64.6235 10.3568 66.2863 9.54768C67.9778 8.73855 69.9129 8.33398 72.0918 8.33398C74.0127 8.33398 75.7902 8.66631 77.4243 9.33095C79.0585 9.99559 80.4632 10.9348 81.6387 12.1485C82.8428 13.3622 83.7459 14.8215 84.3479 16.5264L78.9294 18.9972C78.3274 17.4945 77.4243 16.3242 76.2202 15.4861C75.0161 14.6192 73.64 14.1857 72.0918 14.1857C71.2031 14.1857 70.4147 14.3302 69.7266 14.6192C69.0385 14.9082 68.5082 15.3272 68.1355 15.8762C67.7628 16.3964 67.5764 17.0033 67.5764 17.6968C67.5764 18.4481 67.8201 19.1128 68.3075 19.6907C68.7948 20.2398 69.5259 20.6732 70.5007 20.9911L76.6502 22.985C79.2305 23.8231 81.1513 24.9934 82.4128 26.4961C83.7029 27.9988 84.3479 29.8338 84.3479 32.0011C84.3479 33.8794 83.8606 35.5555 82.8858 37.0293C81.911 38.4741 80.5636 39.6156 78.8434 40.4536C77.1519 41.2628 75.1738 41.6673 72.9089 41.6673Z" fill="white"/>
</svg>
